<?xml version="1.0" encoding="UTF-8"?>
<svg width="100px" height="50px" viewBox="0 0 100 50" version="1.1" xmlns="http://www.w3.org/2000/svg" xmlns:xlink="http://www.w3.org/1999/xlink">
    <!-- Generator: Sketch 49.3 (51167) - http://www.bohemiancoding.com/sketch -->
    <title>logo</title>
    <desc>Created with Sketch.</desc>
    <defs></defs>
    <g id="logo" stroke="none" stroke-width="1" fill="none" fill-rule="evenodd">
        <g id="adidas_logo" transform="translate(0.000000, 12.000000)" fill="#FFFFFE">
            <path d="M84.6644366,17.2064394 C84.7964789,20.5776818 87.7070423,22.9672424 92.5683099,22.9672424 C96.5373239,22.9672424 99.8116197,21.2652424 99.8116197,17.5009091 C99.8116197,14.8823939 98.3232394,13.3441818 94.8834507,12.6897273 L92.2049296,12.1659545 C90.4848592,11.8383788 89.2943662,11.5111515 89.2943662,10.4963636 C89.2943662,9.38365152 90.4521127,8.89263636 91.9070423,8.89263636 C94.0239437,8.89263636 94.8834507,9.93983333 94.95,11.1839242 L99.1830986,11.1839242 C98.9517606,7.91060606 96.3059859,5.71759091 92.0394366,5.71759091 C87.640493,5.71759091 85.028169,8.10715152 85.028169,11.2166818 C85.028169,15.0134242 88.1369718,15.6351212 90.8158451,16.1261364 L93.0316901,16.5192273 C94.6190141,16.813697 95.3137324,17.2716061 95.3137324,18.1884697 C95.3137324,19.0067121 94.5200704,19.8249545 92.6348592,19.8249545 C89.8897887,19.8249545 88.996831,18.4174242 88.9637324,17.2064394 L84.6644366,17.2064394 Z" id="adidas_company_logo_BWr"></path>
            <path d="M78.9098592,22.6400152 L78.9098592,21.4617879 C77.4880282,22.4438182 75.7679577,23 73.9161972,23 C69.0873239,23 65.1848592,19.1705 65.1848592,14.3586212 C65.1848592,9.57984848 69.0873239,5.71759091 73.9161972,5.71759091 C75.7679577,5.71759091 77.4880282,6.27377273 78.9098592,7.25580303 L78.9098592,5.91378788 L83.1102113,5.91378788 L83.1102113,22.6400152 L78.9098592,22.6400152 Z M69.2859155,14.3586212 C69.2859155,17.0102424 71.4355634,19.1377424 74.1144366,19.1377424 C76.7933099,19.1377424 78.9429577,17.0102424 78.9429577,14.3586212 C78.9429577,11.707697 76.7933099,9.57984848 74.1144366,9.57984848 C71.4355634,9.57984848 69.2859155,11.707697 69.2859155,14.3586212 Z" id="Combined-Shape"></path>
            <path d="M59.265493,0.2185 L63.465493,0.2185 L63.465493,22.6400152 L59.265493,22.6400152 L59.265493,21.4617879 C57.8433099,22.4438182 56.1232394,23 54.2711268,23 C49.4426056,23 45.5401408,19.1705 45.5401408,14.3586212 C45.5401408,9.57984848 49.4426056,5.71759091 54.2711268,5.71759091 C56.1232394,5.71759091 57.8433099,6.27377273 59.265493,7.25580303 L59.265493,0.2185 Z M49.6411972,14.3586212 C49.6411972,17.0102424 51.7908451,19.1377424 54.4697183,19.1377424 C57.1485915,19.1377424 59.2982394,17.0102424 59.2982394,14.3586212 C59.2982394,11.707697 57.1485915,9.57984848 54.4697183,9.57984848 C51.7908451,9.57984848 49.6411972,11.707697 49.6411972,14.3586212 Z" id="Combined-Shape"></path>
            <path d="M39.6204225,22.6400152 L39.6204225,5.91378788 L43.8204225,5.91378788 L43.8204225,22.6400152 L39.6204225,22.6400152 Z M39.6204225,4.37522727 L39.6204225,0.2185 L43.8204225,0.2185 L43.8204225,4.37522727 L39.6204225,4.37522727 Z" id="Combined-Shape"></path>
            <path d="M33.3700704,0.2185 L37.5704225,0.2185 L37.5704225,22.6400152 L33.3700704,22.6400152 L33.3700704,21.4617879 C31.9482394,22.4438182 30.228169,23 28.3764085,23 C23.5475352,23 19.6450704,19.1705 19.6450704,14.3586212 C19.6450704,9.57984848 23.5475352,5.71759091 28.3764085,5.71759091 C30.228169,5.71759091 31.9482394,6.27377273 33.3700704,7.25580303 L33.3700704,0.2185 Z M23.7461268,14.3586212 C23.7461268,17.0102424 25.8957746,19.1377424 28.5746479,19.1377424 C31.2535211,19.1377424 33.403169,17.0102424 33.403169,14.3586212 C33.403169,11.707697 31.2535211,9.57984848 28.5746479,9.57984848 C25.8957746,9.57984848 23.7461268,11.707697 23.7461268,14.3586212 Z" id="Combined-Shape"></path>
            <path d="M13.7253521,22.6400152 L13.7253521,21.4617879 C12.303169,22.4438182 10.5834507,23 8.73133803,23 C3.9028169,23 0,19.1705 0,14.3586212 C0,9.57984848 3.9028169,5.71759091 8.73133803,5.71759091 C10.5834507,5.71759091 12.303169,6.27377273 13.7253521,7.25580303 L13.7253521,5.91378788 L17.9257042,5.91378788 L17.9257042,22.6400152 L13.7253521,22.6400152 Z M4.10105634,14.3586212 C4.10105634,17.0102424 6.25105634,19.1377424 8.92992958,19.1377424 C11.6088028,19.1377424 13.7584507,17.0102424 13.7584507,14.3586212 C13.7584507,11.707697 11.6088028,9.57984848 8.92992958,9.57984848 C6.25105634,9.57984848 4.10105634,11.707697 4.10105634,14.3586212 Z" id="Combined-Shape"></path>
        </g>
    </g>
</svg>